<svg width="44" height="52" viewBox="0 0 44 52" fill="none" xmlns="http://www.w3.org/2000/svg">
<path d="M36.4657 49.2482C32.2167 51.984 26.8638 52.2271 21.4132 50.4153C22.7626 50.356 24.0563 50.096 25.2735 49.6442C26.1122 49.3322 26.9154 48.9318 27.6695 48.4499C29.9391 47.0029 31.8153 44.8185 33.169 42.0845C36.7451 34.8617 36.7889 23.7893 31.2417 11.3641L26.5142 12.9402L26.8157 1.8879e-05L40.7288 8.20077L35.7718 9.85344C36.2693 10.5243 36.7529 11.2148 37.2152 11.9329C46.4715 26.3091 46.1104 43.0383 36.4659 49.2481L36.4657 49.2482ZM26.6942 46.9094C26.0414 47.325 25.3547 47.6673 24.6384 47.9332C21.782 48.9935 18.4117 48.8667 14.6864 47.1525C10.0917 44.2082 5.72929 39.8855 2.23375 34.4565C1.38878 33.1441 0.685739 31.8087 1.40834e-06 30.4671C8.32376 40.7997 20.2267 45.1591 27.9992 40.1546C30.8495 38.3195 32.7762 35.4557 33.7798 31.9804C33.5899 35.5833 32.7932 38.7308 31.5335 41.2747C30.3047 43.7565 28.6525 45.6629 26.6942 46.9096L26.6942 46.9094Z" fill="#7D7D7D"/>
</svg>
